<mxfile host="app.diagrams.net" modified="2023-09-14T05:37:41.747Z" agent="Mozilla/5.0 (Windows NT 10.0; Win64; x64) AppleWebKit/537.36 (KHTML, like Gecko) Chrome/116.0.0.0 Safari/537.36" etag="5zNc48lxtx2-sIwL4Hkq" version="21.7.5" type="github">
  <diagram name="페이지-1" id="FxfTtG2uFn1u3C_5dOcR">
    <mxGraphModel dx="1050" dy="542" grid="1" gridSize="10" guides="1" tooltips="1" connect="1" arrows="1" fold="1" page="1" pageScale="1" pageWidth="827" pageHeight="1169" math="0" shadow="0">
      <root>
        <mxCell id="0" />
        <mxCell id="1" parent="0" />
        <mxCell id="O-2UjZL1yAo_NsqM2ViU-1" value="Actor" style="shape=umlActor;verticalLabelPosition=bottom;verticalAlign=top;html=1;outlineConnect=0;" vertex="1" parent="1">
          <mxGeometry x="140" y="50" width="30" height="60" as="geometry" />
        </mxCell>
        <mxCell id="O-2UjZL1yAo_NsqM2ViU-2" value="KFC 카운터" style="rounded=0;whiteSpace=wrap;html=1;" vertex="1" parent="1">
          <mxGeometry x="310" y="50" width="120" height="60" as="geometry" />
        </mxCell>
        <mxCell id="O-2UjZL1yAo_NsqM2ViU-3" value="KFC 주방" style="rounded=0;whiteSpace=wrap;html=1;" vertex="1" parent="1">
          <mxGeometry x="550" y="40" width="120" height="60" as="geometry" />
        </mxCell>
        <mxCell id="O-2UjZL1yAo_NsqM2ViU-6" value="" style="endArrow=classic;html=1;rounded=0;" edge="1" parent="1" target="O-2UjZL1yAo_NsqM2ViU-24">
          <mxGeometry width="50" height="50" relative="1" as="geometry">
            <mxPoint x="160" y="210" as="sourcePoint" />
            <mxPoint x="340" y="210" as="targetPoint" />
          </mxGeometry>
        </mxCell>
        <mxCell id="O-2UjZL1yAo_NsqM2ViU-7" value="" style="endArrow=none;dashed=1;html=1;rounded=0;" edge="1" parent="1" source="O-2UjZL1yAo_NsqM2ViU-27">
          <mxGeometry width="50" height="50" relative="1" as="geometry">
            <mxPoint x="370" y="710" as="sourcePoint" />
            <mxPoint x="369.5" y="110" as="targetPoint" />
          </mxGeometry>
        </mxCell>
        <mxCell id="O-2UjZL1yAo_NsqM2ViU-8" value="" style="endArrow=none;dashed=1;html=1;rounded=0;" edge="1" parent="1" source="O-2UjZL1yAo_NsqM2ViU-22">
          <mxGeometry width="50" height="50" relative="1" as="geometry">
            <mxPoint x="160" y="500" as="sourcePoint" />
            <mxPoint x="160" y="130" as="targetPoint" />
          </mxGeometry>
        </mxCell>
        <mxCell id="O-2UjZL1yAo_NsqM2ViU-9" value="" style="endArrow=none;dashed=1;html=1;rounded=0;" edge="1" parent="1" source="O-2UjZL1yAo_NsqM2ViU-25">
          <mxGeometry width="50" height="50" relative="1" as="geometry">
            <mxPoint x="610" y="520" as="sourcePoint" />
            <mxPoint x="609.5" y="100" as="targetPoint" />
          </mxGeometry>
        </mxCell>
        <mxCell id="O-2UjZL1yAo_NsqM2ViU-10" value="" style="endArrow=classic;html=1;rounded=0;" edge="1" parent="1" source="O-2UjZL1yAo_NsqM2ViU-24">
          <mxGeometry width="50" height="50" relative="1" as="geometry">
            <mxPoint x="420" y="280" as="sourcePoint" />
            <mxPoint x="600" y="280" as="targetPoint" />
          </mxGeometry>
        </mxCell>
        <mxCell id="O-2UjZL1yAo_NsqM2ViU-11" value="매장도착" style="text;html=1;align=center;verticalAlign=middle;resizable=0;points=[];autosize=1;strokeColor=none;fillColor=none;" vertex="1" parent="1">
          <mxGeometry x="210" y="180" width="70" height="30" as="geometry" />
        </mxCell>
        <mxCell id="O-2UjZL1yAo_NsqM2ViU-12" value="손님방문알림" style="text;html=1;align=center;verticalAlign=middle;resizable=0;points=[];autosize=1;strokeColor=none;fillColor=none;" vertex="1" parent="1">
          <mxGeometry x="414" y="250" width="100" height="30" as="geometry" />
        </mxCell>
        <mxCell id="O-2UjZL1yAo_NsqM2ViU-14" value="" style="html=1;verticalAlign=bottom;endArrow=open;dashed=1;endSize=8;curved=0;rounded=0;" edge="1" parent="1">
          <mxGeometry x="-1" y="180" relative="1" as="geometry">
            <mxPoint x="610" y="430" as="sourcePoint" />
            <mxPoint x="380" y="430" as="targetPoint" />
            <mxPoint x="100" y="-30" as="offset" />
          </mxGeometry>
        </mxCell>
        <mxCell id="O-2UjZL1yAo_NsqM2ViU-15" value="대답함" style="edgeLabel;html=1;align=center;verticalAlign=middle;resizable=0;points=[];" vertex="1" connectable="0" parent="O-2UjZL1yAo_NsqM2ViU-14">
          <mxGeometry x="0.13" y="1" relative="1" as="geometry">
            <mxPoint x="5" y="-11" as="offset" />
          </mxGeometry>
        </mxCell>
        <mxCell id="O-2UjZL1yAo_NsqM2ViU-23" value="" style="endArrow=none;dashed=1;html=1;rounded=0;" edge="1" parent="1" target="O-2UjZL1yAo_NsqM2ViU-22">
          <mxGeometry width="50" height="50" relative="1" as="geometry">
            <mxPoint x="160" y="1040" as="sourcePoint" />
            <mxPoint x="160" y="130" as="targetPoint" />
          </mxGeometry>
        </mxCell>
        <mxCell id="O-2UjZL1yAo_NsqM2ViU-22" value="" style="html=1;points=[[0,0,0,0,5],[0,1,0,0,-5],[1,0,0,0,5],[1,1,0,0,-5]];perimeter=orthogonalPerimeter;outlineConnect=0;targetShapes=umlLifeline;portConstraint=eastwest;newEdgeStyle={&quot;curved&quot;:0,&quot;rounded&quot;:0};" vertex="1" parent="1">
          <mxGeometry x="150" y="200" width="20" height="800" as="geometry" />
        </mxCell>
        <mxCell id="O-2UjZL1yAo_NsqM2ViU-24" value="" style="html=1;points=[[0,0,0,0,5],[0,1,0,0,-5],[1,0,0,0,5],[1,1,0,0,-5]];perimeter=orthogonalPerimeter;outlineConnect=0;targetShapes=umlLifeline;portConstraint=eastwest;newEdgeStyle={&quot;curved&quot;:0,&quot;rounded&quot;:0};" vertex="1" parent="1">
          <mxGeometry x="360" y="190" width="20" height="270" as="geometry" />
        </mxCell>
        <mxCell id="O-2UjZL1yAo_NsqM2ViU-26" value="" style="endArrow=none;dashed=1;html=1;rounded=0;" edge="1" parent="1" target="O-2UjZL1yAo_NsqM2ViU-25">
          <mxGeometry width="50" height="50" relative="1" as="geometry">
            <mxPoint x="610" y="700" as="sourcePoint" />
            <mxPoint x="609.5" y="100" as="targetPoint" />
          </mxGeometry>
        </mxCell>
        <mxCell id="O-2UjZL1yAo_NsqM2ViU-25" value="" style="html=1;points=[[0,0,0,0,5],[0,1,0,0,-5],[1,0,0,0,5],[1,1,0,0,-5]];perimeter=orthogonalPerimeter;outlineConnect=0;targetShapes=umlLifeline;portConstraint=eastwest;newEdgeStyle={&quot;curved&quot;:0,&quot;rounded&quot;:0};" vertex="1" parent="1">
          <mxGeometry x="600" y="240" width="20" height="210" as="geometry" />
        </mxCell>
        <mxCell id="O-2UjZL1yAo_NsqM2ViU-28" value="" style="endArrow=none;dashed=1;html=1;rounded=0;" edge="1" parent="1" target="O-2UjZL1yAo_NsqM2ViU-27">
          <mxGeometry width="50" height="50" relative="1" as="geometry">
            <mxPoint x="370" y="1030" as="sourcePoint" />
            <mxPoint x="369.5" y="110" as="targetPoint" />
          </mxGeometry>
        </mxCell>
        <mxCell id="O-2UjZL1yAo_NsqM2ViU-27" value="" style="html=1;points=[[0,0,0,0,5],[0,1,0,0,-5],[1,0,0,0,5],[1,1,0,0,-5]];perimeter=orthogonalPerimeter;outlineConnect=0;targetShapes=umlLifeline;portConstraint=eastwest;newEdgeStyle={&quot;curved&quot;:0,&quot;rounded&quot;:0};" vertex="1" parent="1">
          <mxGeometry x="360" y="490" width="20" height="440" as="geometry" />
        </mxCell>
        <mxCell id="O-2UjZL1yAo_NsqM2ViU-29" value="" style="group" vertex="1" connectable="0" parent="1">
          <mxGeometry x="210" y="540" width="60" height="30" as="geometry" />
        </mxCell>
        <mxCell id="O-2UjZL1yAo_NsqM2ViU-19" value="주문함" style="text;html=1;align=center;verticalAlign=middle;resizable=0;points=[];autosize=1;strokeColor=none;fillColor=none;" vertex="1" parent="O-2UjZL1yAo_NsqM2ViU-29">
          <mxGeometry x="32.30769230769231" width="60" height="30" as="geometry" />
        </mxCell>
        <mxCell id="O-2UjZL1yAo_NsqM2ViU-18" value="" style="endArrow=classic;html=1;rounded=0;" edge="1" parent="1">
          <mxGeometry width="50" height="50" relative="1" as="geometry">
            <mxPoint x="160" y="570" as="sourcePoint" />
            <mxPoint x="360" y="570" as="targetPoint" />
          </mxGeometry>
        </mxCell>
        <mxCell id="O-2UjZL1yAo_NsqM2ViU-31" value="alt" style="shape=umlFrame;whiteSpace=wrap;html=1;pointerEvents=0;recursiveResize=0;container=1;collapsible=0;width=170;" vertex="1" parent="1">
          <mxGeometry x="124" y="680" width="290" height="250" as="geometry" />
        </mxCell>
        <mxCell id="O-2UjZL1yAo_NsqM2ViU-32" value="[영업시간 끝이라면]" style="text;html=1;" vertex="1" parent="O-2UjZL1yAo_NsqM2ViU-31">
          <mxGeometry width="100" height="20" relative="1" as="geometry">
            <mxPoint x="20" y="40" as="offset" />
          </mxGeometry>
        </mxCell>
        <mxCell id="O-2UjZL1yAo_NsqM2ViU-33" value="[else]" style="line;strokeWidth=1;dashed=1;labelPosition=center;verticalLabelPosition=bottom;align=left;verticalAlign=top;spacingLeft=20;spacingTop=15;html=1;whiteSpace=wrap;" vertex="1" parent="O-2UjZL1yAo_NsqM2ViU-31">
          <mxGeometry y="125" width="290" height="10" as="geometry" />
        </mxCell>
        <mxCell id="O-2UjZL1yAo_NsqM2ViU-34" value="" style="html=1;verticalAlign=bottom;endArrow=open;dashed=1;endSize=8;curved=0;rounded=0;" edge="1" parent="O-2UjZL1yAo_NsqM2ViU-31">
          <mxGeometry x="-1" y="180" relative="1" as="geometry">
            <mxPoint x="240" y="90" as="sourcePoint" />
            <mxPoint x="50" y="90" as="targetPoint" />
            <mxPoint x="100" y="-30" as="offset" />
          </mxGeometry>
        </mxCell>
        <mxCell id="O-2UjZL1yAo_NsqM2ViU-35" value="종료안내" style="edgeLabel;html=1;align=center;verticalAlign=middle;resizable=0;points=[];" vertex="1" connectable="0" parent="O-2UjZL1yAo_NsqM2ViU-34">
          <mxGeometry x="0.13" y="1" relative="1" as="geometry">
            <mxPoint x="5" y="-11" as="offset" />
          </mxGeometry>
        </mxCell>
        <mxCell id="O-2UjZL1yAo_NsqM2ViU-36" value="" style="html=1;verticalAlign=bottom;endArrow=open;dashed=1;endSize=8;curved=0;rounded=0;fontStyle=1" edge="1" parent="O-2UjZL1yAo_NsqM2ViU-31">
          <mxGeometry x="-1" y="180" relative="1" as="geometry">
            <mxPoint x="240" y="200" as="sourcePoint" />
            <mxPoint x="50" y="200" as="targetPoint" />
            <mxPoint x="100" y="-30" as="offset" />
          </mxGeometry>
        </mxCell>
        <mxCell id="O-2UjZL1yAo_NsqM2ViU-37" value="주문확인" style="edgeLabel;html=1;align=center;verticalAlign=middle;resizable=0;points=[];" vertex="1" connectable="0" parent="O-2UjZL1yAo_NsqM2ViU-36">
          <mxGeometry x="0.13" y="1" relative="1" as="geometry">
            <mxPoint x="5" y="-11" as="offset" />
          </mxGeometry>
        </mxCell>
        <mxCell id="O-2UjZL1yAo_NsqM2ViU-38" value="" style="html=1;verticalAlign=bottom;endArrow=open;dashed=1;endSize=8;curved=0;rounded=0;" edge="1" parent="1">
          <mxGeometry x="-1" y="180" relative="1" as="geometry">
            <mxPoint x="360" y="430" as="sourcePoint" />
            <mxPoint x="170" y="430" as="targetPoint" />
            <mxPoint x="100" y="-30" as="offset" />
          </mxGeometry>
        </mxCell>
        <mxCell id="O-2UjZL1yAo_NsqM2ViU-39" value="인사함" style="edgeLabel;html=1;align=center;verticalAlign=middle;resizable=0;points=[];" vertex="1" connectable="0" parent="O-2UjZL1yAo_NsqM2ViU-38">
          <mxGeometry x="0.13" y="1" relative="1" as="geometry">
            <mxPoint x="5" y="-11" as="offset" />
          </mxGeometry>
        </mxCell>
      </root>
    </mxGraphModel>
  </diagram>
</mxfile>
